ffmpeg version N-95760-g315a449 Copyright (c) 2000-2019 the FFmpeg developers
  built with gcc 7 (Ubuntu 7.4.0-1ubuntu1~18.04.1)
  configuration: --prefix=/home/vagrant/bin
  libavutil      56. 36.100 / 56. 36.100
  libavcodec     58. 62.100 / 58. 62.100
  libavformat    58. 35.100 / 58. 35.100
  libavdevice    58.  9.100 / 58.  9.100
  libavfilter     7. 66.100 /  7. 66.100
  libswscale      5.  6.100 /  5.  6.100
  libswresample   3.  6.100 /  3.  6.100
[mmf @ 0x562fbb90a700] Estimating duration from bitrate, this may be inaccurate
Input #0, mmf, from '../../testcases/mmfsample1.mmf':
  Duration: 00:00:02.45, bitrate: 32 kb/s
    Stream #0:0: Audio: adpcm_yamaha, 8000 Hz, mono, s16, 32 kb/s
Stream mapping:
  Stream #0:0 -> #0:0 (adpcm_yamaha (native) -> aac (native))
Press [q] to stop, [?] for help
[aac @ 0x562fbb91b880] Too many bits 8832.000000 > 6144 per frame requested, clamping to max
Output #0, mp4, to 'mmfsample1.mp4':
  Metadata:
    encoder         : Lavf58.35.100
    Stream #0:0: Audio: aac (LC) (mp4a / 0x6134706D), 8000 Hz, mono, fltp, 48 kb/s
    Metadata:
      encoder         : Lavc58.62.100 aac
../../testcases/mmfsample1.mmf: corrupt input packet in stream 0
size=      13kB time=00:00:02.56 bitrate=  42.0kbits/s speed= 270x    
video:0kB audio:12kB subtitle:0kB other streams:0kB global headers:0kB muxing overhead: 7.104697%
[aac @ 0x562fbb91b880] Qavg: 3326.806
